# xmcd
#
# Track frame offsets:
#	182
#	21005
#	42065
#	58412
#	78807
#	92457
#	110180
#	125475
#	145077
#	164357
#	181747
#	202292
#
# Disc length: 2920 seconds
#
# Revision: 2
# Processed by: cddbd v1.5.2PL0 Copyright (c) Steve Scherf et al.
# Submitted via: EZCDAudioConverter 9.1.0.1
#
DISCID=a10b660c
DTITLE=CONEXÃO JAPERI - TÃO LINDA [CD 7432123283-2) BMG RCA
DYEAR=1994
DGENRE=Soul
TTITLE0=O PARAÍSO (BY GILMAR SINISTRO)
TTITLE1=MINHA MULHER (BY GILMAR SINISTRO)
TTITLE2=TÃO LINDA (BY GILMAR SINISTRO)
TTITLE3=SOFÁ (BY GILMAR SINISTRO)
TTITLE4=RÉU CONFESSO (BY GILMAR SINISTRO)
TTITLE5=BAILE CHARME (BY GILMAR SINISTRO)
TTITLE6=ANIMAL FEROZ (BY GILMAR SINISTRO)
TTITLE7=VOCÊ É SÓ PRA MIM (BY GILMAR SINISTRO)
TTITLE8=A DAMA E O VAGABUNDO (BY GILMAR SINISTRO)
TTITLE9=SALVE ESSA FLOR (BY GILMAR SINISTRO)
TTITLE10=MÁ (BY GILMAR SINISTRO)
TTITLE11=JAPERI (BY GILMAR SINISTRO)
EXTD=
EXTT0=
EXTT1=
EXTT2=
EXTT3=
EXTT4=
EXTT5=
EXTT6=
EXTT7=
EXTT8=
EXTT9=
EXTT10=
EXTT11=
PLAYORDER=
